<svg width="44" height="44" viewBox="0 0 44 44" fill="none" xmlns="http://www.w3.org/2000/svg">
<circle cx="22" cy="22" r="22" fill="#272B3F"/>
<path d="M27.3333 19.2C27.3333 17.8209 26.7714 16.4982 25.7712 15.523C24.771 14.5479 23.4145 14 22 14C20.5855 14 19.229 14.5479 18.2288 15.523C17.2286 16.4982 16.6667 17.8209 16.6667 19.2C16.6667 21.9426 16.1217 23.7996 15.5244 25.0112C15.1943 25.6808 15.7834 27 16.53 27H27.47C28.2166 27 28.8057 25.6808 28.4756 25.0112C27.8783 23.7996 27.3333 21.9426 27.3333 19.2Z" stroke="#B1B9D1" stroke-width="1.5" stroke-linecap="round" stroke-linejoin="round"/>
<line x1="20.75" y1="30.25" x2="23.25" y2="30.25" stroke="#B1B9D1" stroke-width="1.5" stroke-linecap="round" stroke-linejoin="round"/>
</svg>
