<svg width="24" height="24" viewBox="0 0 24 24" fill="none" xmlns="http://www.w3.org/2000/svg">
<path d="M-1.71666e-08 12C-7.68577e-09 5.37258 5.37258 0 12 0C18.6274 0 24 5.37258 24 12C24 18.6274 18.6274 24 12 24C5.37258 24 -2.66475e-08 18.6274 -1.71666e-08 12Z" fill="#8A91B1"/>
<path d="M9 8.13651C9.24196 7.42416 9.71954 6.82347 10.3482 6.44085C10.9768 6.05823 11.7158 5.91837 12.4345 6.04603C13.1531 6.1737 13.805 6.56065 14.2745 7.13835C14.7441 7.71606 15.0011 8.44724 15 9.20239C15 11.3341 11.9125 12.4 11.9125 12.4V14" stroke="white" stroke-width="1.5" stroke-linecap="round" stroke-linejoin="round"/>
<path d="M12 17H12.01" stroke="white" stroke-width="2" stroke-linecap="round" stroke-linejoin="round"/>
</svg>
